# Blender 3.6.2
# www.blender.org
mtllib space.mtl
o Cube
v 104.206085 104.206085 -104.206085
v 104.206085 -104.206085 -104.206085
v 104.206085 104.206085 104.206085
v 104.206085 -104.206085 104.206085
v -104.206085 104.206085 -104.206085
v -104.206085 -104.206085 -104.206085
v -104.206085 104.206085 104.206085
v -104.206085 -104.206085 104.206085
vn -0.0000 1.0000 -0.0000
vn -0.0000 -0.0000 1.0000
vn -1.0000 -0.0000 -0.0000
vn -0.0000 -1.0000 -0.0000
vn 1.0000 -0.0000 -0.0000
vn -0.0000 -0.0000 -1.0000
vt 0.499841 0.010861
vt 0.741601 0.340300
vt 0.499239 0.340300
vt 0.983360 0.669739
vt 0.740998 0.669739
vt 0.014514 0.340300
vt 0.256274 0.669739
vt 0.013912 0.669739
vt 0.498636 0.669739
vt 0.740396 0.999179
vt 0.498033 0.999179
vt 0.256876 0.340300
vt 0.742203 0.010861
vt 0.983963 0.340300
s 0
usemtl Material
f 5/1/1 3/2/1 1/3/1
f 3/2/2 8/4/2 4/5/2
f 7/6/3 6/7/3 8/8/3
f 2/9/4 8/10/4 6/11/4
f 1/3/5 4/5/5 2/9/5
f 5/12/6 2/9/6 6/7/6
f 5/1/1 7/13/1 3/2/1
f 3/2/2 7/14/2 8/4/2
f 7/6/3 5/12/3 6/7/3
f 2/9/4 4/5/4 8/10/4
f 1/3/5 3/2/5 4/5/5
f 5/12/6 1/3/6 2/9/6
