# Blender 3.6.2
# www.blender.org
o Small_stellated_dodecahedron
v 2.360680 6.180340 0.000000
v 10.000000 6.180340 0.000000
v 3.819660 3.819660 -3.819660
v 2.360680 -6.180340 0.000000
v 10.000000 -6.180340 0.000000
v 3.819660 -3.819660 3.819660
v -2.360680 -6.180340 0.000000
v -10.000000 -6.180340 0.000000
v -3.819660 -3.819660 -3.819660
v -2.360680 6.180340 0.000000
v -10.000000 6.180340 0.000000
v -3.819660 3.819660 3.819660
v 0.000000 2.360680 -6.180340
v 0.000000 10.000000 -6.180340
v 0.000000 -2.360680 6.180340
v 0.000000 -10.000000 6.180340
v 0.000000 -2.360680 -6.180340
v 0.000000 -10.000000 -6.180340
v 0.000000 2.360680 6.180340
v 0.000000 10.000000 6.180340
v 6.180340 0.000000 -2.360680
v 6.180340 0.000000 -10.000000
v 6.180340 0.000000 2.360680
v 6.180340 0.000000 10.000000
v -6.180340 0.000000 -2.360680
v -6.180340 0.000000 -10.000000
v -6.180340 0.000000 2.360680
v -6.180340 0.000000 10.000000
v 3.819660 3.819660 3.819660
v 3.819660 -3.819660 -3.819660
v -3.819660 -3.819660 3.819660
v -3.819660 3.819660 -3.819660
vn -0.0000 0.8507 -0.5257
vn -0.0000 -0.8507 0.5257
vn -0.0000 -0.8507 -0.5257
vn -0.0000 0.8507 0.5257
vn 0.5257 -0.0000 -0.8507
vn 0.5257 -0.0000 0.8507
vn -0.5257 -0.0000 -0.8507
vn -0.5257 -0.0000 0.8507
vn 0.8507 0.5257 -0.0000
vn 0.8507 -0.5257 -0.0000
vn -0.8507 -0.5257 -0.0000
vn -0.8507 0.5257 -0.0000
s 0
f 1//1 2//1 3//1
f 4//2 5//2 6//2
f 7//3 8//3 9//3
f 10//4 11//4 12//4
f 13//5 14//5 3//5
f 15//6 16//6 6//6
f 17//7 18//7 9//7
f 19//8 20//8 12//8
f 21//9 22//9 3//9
f 23//10 24//10 6//10
f 25//11 26//11 9//11
f 27//12 28//12 12//12
f 29//4 2//4 1//4
f 30//3 5//3 4//3
f 31//2 8//2 7//2
f 32//1 11//1 10//1
f 32//7 14//7 13//7
f 31//8 16//8 15//8
f 30//5 18//5 17//5
f 29//6 20//6 19//6
f 30//10 22//10 21//10
f 29//9 24//9 23//9
f 32//12 26//12 25//12
f 31//11 28//11 27//11
f 23//6 2//6 29//6
f 21//5 5//5 30//5
f 27//8 8//8 31//8
f 25//7 11//7 32//7
f 10//1 20//1 1//1
f 7//2 18//2 4//2
f 4//3 16//3 7//3
f 1//4 14//4 10//4
f 17//5 26//5 13//5
f 19//6 28//6 15//6
f 13//7 22//7 17//7
f 15//8 24//8 19//8
f 23//9 5//9 21//9
f 21//10 2//10 23//10
f 27//11 11//11 25//11
f 25//12 8//12 27//12
f 19//4 24//4 29//4
f 17//3 22//3 30//3
f 15//2 28//2 31//2
f 13//1 26//1 32//1
f 3//9 14//9 1//9
f 6//10 16//10 4//10
f 9//11 18//11 7//11
f 12//12 20//12 10//12
f 3//1 22//1 13//1
f 6//2 24//2 15//2
f 9//3 26//3 17//3
f 12//4 28//4 19//4
f 3//5 2//5 21//5
f 6//6 5//6 23//6
f 9//7 8//7 25//7
f 12//8 11//8 27//8
f 1//9 20//9 29//9
f 4//10 18//10 30//10
f 7//11 16//11 31//11
f 10//12 14//12 32//12
